<svg height="2750" width="720" xmlns="http://www.w3.org/2000/svg">
<rect height="2750" fill="#555" width="720"></rect>
<text fill="#7f7" font-family="Courier New" font-size="12" xml:space="preserve">
<tspan x="10" y="26">23 megabytes installed</tspan>
<tspan x="10" y="42"></tspan>
<tspan x="10" y="58">node_modules</tspan>
<tspan x="10" y="74">└─┬ grunt-nsp-package@0.0.5 </tspan>
<tspan x="10" y="90">  ├── async@0.2.10 </tspan>
<tspan x="10" y="106">  ├─┬ cli-color@0.2.3 </tspan>
<tspan x="10" y="122">  │ ├── es5-ext@0.9.2 </tspan>
<tspan x="10" y="138">  │ └─┬ memoizee@0.2.6 </tspan>
<tspan x="10" y="154">  │   ├── event-emitter@0.2.2 </tspan>
<tspan x="10" y="170">  │   └── next-tick@0.1.0 </tspan>
<tspan x="10" y="186">  ├── colors@0.6.2 </tspan>
<tspan x="10" y="202">  ├─┬ goo.gl@0.1.4 </tspan>
<tspan x="10" y="218">  │ ├── commander@2.2.0 </tspan>
<tspan x="10" y="234">  │ ├── q@1.0.1 </tspan>
<tspan x="10" y="250">  │ └─┬ request@2.40.0 </tspan>
<tspan x="10" y="266">  │   ├── aws-sign2@0.5.0 </tspan>
<tspan x="10" y="282">  │   ├── forever-agent@0.5.2 </tspan>
<tspan x="10" y="298">  │   ├─┬ form-data@0.1.4 </tspan>
<tspan x="10" y="314">  │   │ ├── async@0.9.2 </tspan>
<tspan x="10" y="330">  │   │ ├─┬ combined-stream@0.0.7 </tspan>
<tspan x="10" y="346">  │   │ │ └── delayed-stream@0.0.5 </tspan>
<tspan x="10" y="362">  │   │ └── mime@1.2.11 </tspan>
<tspan x="10" y="378">  │   ├─┬ hawk@1.1.1 </tspan>
<tspan x="10" y="394">  │   │ ├── boom@0.4.2 </tspan>
<tspan x="10" y="410">  │   │ ├── cryptiles@0.2.2 </tspan>
<tspan x="10" y="426">  │   │ ├── hoek@0.9.1 </tspan>
<tspan x="10" y="442">  │   │ └── sntp@0.2.4 </tspan>
<tspan x="10" y="458">  │   ├─┬ http-signature@0.10.1 </tspan>
<tspan x="10" y="474">  │   │ ├── asn1@0.1.11 </tspan>
<tspan x="10" y="490">  │   │ ├── assert-plus@0.1.5 </tspan>
<tspan x="10" y="506">  │   │ └── ctype@0.5.3 </tspan>
<tspan x="10" y="522">  │   ├── mime-types@1.0.2 </tspan>
<tspan x="10" y="538">  │   ├── node-uuid@1.4.8 </tspan>
<tspan x="10" y="554">  │   ├── oauth-sign@0.3.0 </tspan>
<tspan x="10" y="570">  │   ├── qs@1.0.2 </tspan>
<tspan x="10" y="586">  │   └── tunnel-agent@0.4.3 </tspan>
<tspan x="10" y="602">  ├─┬ grunt@0.4.5 </tspan>
<tspan x="10" y="618">  │ ├── async@0.1.22 </tspan>
<tspan x="10" y="634">  │ ├── coffee-script@1.3.3 </tspan>
<tspan x="10" y="650">  │ ├── dateformat@1.0.2-1.2.3 </tspan>
<tspan x="10" y="666">  │ ├── eventemitter2@0.4.14 </tspan>
<tspan x="10" y="682">  │ ├── exit@0.1.2 </tspan>
<tspan x="10" y="698">  │ ├─┬ findup-sync@0.1.3 </tspan>
<tspan x="10" y="714">  │ │ ├─┬ glob@3.2.11 </tspan>
<tspan x="10" y="730">  │ │ │ └── minimatch@0.3.0 </tspan>
<tspan x="10" y="746">  │ │ └── lodash@2.4.2 </tspan>
<tspan x="10" y="762">  │ ├── getobject@0.1.0 </tspan>
<tspan x="10" y="778">  │ ├─┬ glob@3.1.21 </tspan>
<tspan x="10" y="794">  │ │ ├── graceful-fs@1.2.3 </tspan>
<tspan x="10" y="810">  │ │ └── inherits@1.0.2 </tspan>
<tspan x="10" y="826">  │ ├─┬ grunt-legacy-log@0.1.3 </tspan>
<tspan x="10" y="842">  │ │ ├─┬ grunt-legacy-log-utils@0.1.1 </tspan>
<tspan x="10" y="858">  │ │ │ ├── lodash@2.4.2 </tspan>
<tspan x="10" y="874">  │ │ │ └── underscore.string@2.3.3 </tspan>
<tspan x="10" y="890">  │ │ ├── lodash@2.4.2 </tspan>
<tspan x="10" y="906">  │ │ └── underscore.string@2.3.3 </tspan>
<tspan x="10" y="922">  │ ├─┬ grunt-legacy-util@0.2.0 </tspan>
<tspan x="10" y="938">  │ │ └── async@0.1.22 </tspan>
<tspan x="10" y="954">  │ ├── hooker@0.2.3 </tspan>
<tspan x="10" y="970">  │ ├── iconv-lite@0.2.11 </tspan>
<tspan x="10" y="986">  │ ├─┬ js-yaml@2.0.5 </tspan>
<tspan x="10" y="1002">  │ │ ├─┬ argparse@0.1.16 </tspan>
<tspan x="10" y="1018">  │ │ │ ├── underscore@1.7.0 </tspan>
<tspan x="10" y="1034">  │ │ │ └── underscore.string@2.4.0 </tspan>
<tspan x="10" y="1050">  │ │ └── esprima@1.0.4 </tspan>
<tspan x="10" y="1066">  │ ├── lodash@0.9.2 </tspan>
<tspan x="10" y="1082">  │ ├─┬ minimatch@0.2.14 </tspan>
<tspan x="10" y="1098">  │ │ ├── lru-cache@2.7.3 </tspan>
<tspan x="10" y="1114">  │ │ └── sigmund@1.0.1 </tspan>
<tspan x="10" y="1130">  │ ├─┬ nopt@1.0.10 </tspan>
<tspan x="10" y="1146">  │ │ └── abbrev@1.1.0 </tspan>
<tspan x="10" y="1162">  │ ├── rimraf@2.2.8 </tspan>
<tspan x="10" y="1178">  │ ├── underscore.string@2.2.1 </tspan>
<tspan x="10" y="1194">  │ └── which@1.0.9 </tspan>
<tspan x="10" y="1210">  ├─┬ npm-registry-client@0.4.12 </tspan>
<tspan x="10" y="1226">  │ ├── chownr@0.0.2 </tspan>
<tspan x="10" y="1242">  │ ├── graceful-fs@2.0.3 </tspan>
<tspan x="10" y="1258">  │ ├── mkdirp@0.3.5 </tspan>
<tspan x="10" y="1274">  │ ├─┬ npmlog@4.0.2 </tspan>
<tspan x="10" y="1290">  │ │ ├─┬ are-we-there-yet@1.1.4 </tspan>
<tspan x="10" y="1306">  │ │ │ ├── delegates@1.0.0 </tspan>
<tspan x="10" y="1322">  │ │ │ └─┬ readable-stream@2.2.9 </tspan>
<tspan x="10" y="1338">  │ │ │   ├── buffer-shims@1.0.0 </tspan>
<tspan x="10" y="1354">  │ │ │   ├── core-util-is@1.0.2 </tspan>
<tspan x="10" y="1370">  │ │ │   ├── isarray@1.0.0 </tspan>
<tspan x="10" y="1386">  │ │ │   ├── process-nextick-args@1.0.7 </tspan>
<tspan x="10" y="1402">  │ │ │   ├── string_decoder@1.0.0 </tspan>
<tspan x="10" y="1418">  │ │ │   └── util-deprecate@1.0.2 </tspan>
<tspan x="10" y="1434">  │ │ ├── console-control-strings@1.1.0 </tspan>
<tspan x="10" y="1450">  │ │ ├─┬ gauge@2.7.4 </tspan>
<tspan x="10" y="1466">  │ │ │ ├── aproba@1.1.1 </tspan>
<tspan x="10" y="1482">  │ │ │ ├── has-unicode@2.0.1 </tspan>
<tspan x="10" y="1498">  │ │ │ ├── object-assign@4.1.1 </tspan>
<tspan x="10" y="1514">  │ │ │ ├── signal-exit@3.0.2 </tspan>
<tspan x="10" y="1530">  │ │ │ ├─┬ string-width@1.0.2 </tspan>
<tspan x="10" y="1546">  │ │ │ │ ├── code-point-at@1.1.0 </tspan>
<tspan x="10" y="1562">  │ │ │ │ └─┬ is-fullwidth-code-point@1.0.0 </tspan>
<tspan x="10" y="1578">  │ │ │ │   └── number-is-nan@1.0.1 </tspan>
<tspan x="10" y="1594">  │ │ │ ├─┬ strip-ansi@3.0.1 </tspan>
<tspan x="10" y="1610">  │ │ │ │ └── ansi-regex@2.1.1 </tspan>
<tspan x="10" y="1626">  │ │ │ └── wide-align@1.1.0 </tspan>
<tspan x="10" y="1642">  │ │ └── set-blocking@2.0.0 </tspan>
<tspan x="10" y="1658">  │ ├── retry@0.6.0 </tspan>
<tspan x="10" y="1674">  │ └── slide@1.1.6 </tspan>
<tspan x="10" y="1690">  ├─┬ npmconf@0.1.16 </tspan>
<tspan x="10" y="1706">  │ ├─┬ config-chain@1.1.11 </tspan>
<tspan x="10" y="1722">  │ │ ├── ini@1.3.4 </tspan>
<tspan x="10" y="1738">  │ │ └── proto-list@1.2.4 </tspan>
<tspan x="10" y="1754">  │ ├── inherits@2.0.3 </tspan>
<tspan x="10" y="1770">  │ ├── ini@1.1.0 </tspan>
<tspan x="10" y="1786">  │ ├── nopt@2.2.1 </tspan>
<tspan x="10" y="1802">  │ ├─┬ once@1.3.3 </tspan>
<tspan x="10" y="1818">  │ │ └── wrappy@1.0.2 </tspan>
<tspan x="10" y="1834">  │ └── osenv@0.0.3 </tspan>
<tspan x="10" y="1850">  ├─┬ request@2.81.0 </tspan>
<tspan x="10" y="1866">  │ ├── aws-sign2@0.6.0 </tspan>
<tspan x="10" y="1882">  │ ├── aws4@1.6.0 </tspan>
<tspan x="10" y="1898">  │ ├── caseless@0.12.0 </tspan>
<tspan x="10" y="1914">  │ ├─┬ combined-stream@1.0.5 </tspan>
<tspan x="10" y="1930">  │ │ └── delayed-stream@1.0.0 </tspan>
<tspan x="10" y="1946">  │ ├── extend@3.0.0 </tspan>
<tspan x="10" y="1962">  │ ├── forever-agent@0.6.1 </tspan>
<tspan x="10" y="1978">  │ ├─┬ form-data@2.1.4 </tspan>
<tspan x="10" y="1994">  │ │ └── asynckit@0.4.0 </tspan>
<tspan x="10" y="2010">  │ ├─┬ har-validator@4.2.1 </tspan>
<tspan x="10" y="2026">  │ │ ├─┬ ajv@4.11.7 </tspan>
<tspan x="10" y="2042">  │ │ │ ├── co@4.6.0 </tspan>
<tspan x="10" y="2058">  │ │ │ └─┬ json-stable-stringify@1.0.1 </tspan>
<tspan x="10" y="2074">  │ │ │   └── jsonify@0.0.0 </tspan>
<tspan x="10" y="2090">  │ │ └── har-schema@1.0.5 </tspan>
<tspan x="10" y="2106">  │ ├─┬ hawk@3.1.3 </tspan>
<tspan x="10" y="2122">  │ │ ├── boom@2.10.1 </tspan>
<tspan x="10" y="2138">  │ │ ├── cryptiles@2.0.5 </tspan>
<tspan x="10" y="2154">  │ │ ├── hoek@2.16.3 </tspan>
<tspan x="10" y="2170">  │ │ └── sntp@1.0.9 </tspan>
<tspan x="10" y="2186">  │ ├─┬ http-signature@1.1.1 </tspan>
<tspan x="10" y="2202">  │ │ ├── assert-plus@0.2.0 </tspan>
<tspan x="10" y="2218">  │ │ ├─┬ jsprim@1.4.0 </tspan>
<tspan x="10" y="2234">  │ │ │ ├── assert-plus@1.0.0 </tspan>
<tspan x="10" y="2250">  │ │ │ ├── extsprintf@1.0.2 </tspan>
<tspan x="10" y="2266">  │ │ │ ├── json-schema@0.2.3 </tspan>
<tspan x="10" y="2282">  │ │ │ └── verror@1.3.6 </tspan>
<tspan x="10" y="2298">  │ │ └─┬ sshpk@1.13.0 </tspan>
<tspan x="10" y="2314">  │ │   ├── asn1@0.2.3 </tspan>
<tspan x="10" y="2330">  │ │   ├── assert-plus@1.0.0 </tspan>
<tspan x="10" y="2346">  │ │   ├── bcrypt-pbkdf@1.0.1 </tspan>
<tspan x="10" y="2362">  │ │   ├─┬ dashdash@1.14.1 </tspan>
<tspan x="10" y="2378">  │ │   │ └── assert-plus@1.0.0 </tspan>
<tspan x="10" y="2394">  │ │   ├── ecc-jsbn@0.1.1 </tspan>
<tspan x="10" y="2410">  │ │   ├─┬ getpass@0.1.6 </tspan>
<tspan x="10" y="2426">  │ │   │ └── assert-plus@1.0.0 </tspan>
<tspan x="10" y="2442">  │ │   ├── jodid25519@1.0.2 </tspan>
<tspan x="10" y="2458">  │ │   ├── jsbn@0.1.1 </tspan>
<tspan x="10" y="2474">  │ │   └── tweetnacl@0.14.5 </tspan>
<tspan x="10" y="2490">  │ ├── is-typedarray@1.0.0 </tspan>
<tspan x="10" y="2506">  │ ├── isstream@0.1.2 </tspan>
<tspan x="10" y="2522">  │ ├── json-stringify-safe@5.0.1 </tspan>
<tspan x="10" y="2538">  │ ├─┬ mime-types@2.1.15 </tspan>
<tspan x="10" y="2554">  │ │ └── mime-db@1.27.0 </tspan>
<tspan x="10" y="2570">  │ ├── oauth-sign@0.8.2 </tspan>
<tspan x="10" y="2586">  │ ├── performance-now@0.2.0 </tspan>
<tspan x="10" y="2602">  │ ├── qs@6.4.0 </tspan>
<tspan x="10" y="2618">  │ ├── safe-buffer@5.0.1 </tspan>
<tspan x="10" y="2634">  │ ├── stringstream@0.0.5 </tspan>
<tspan x="10" y="2650">  │ ├─┬ tough-cookie@2.3.2 </tspan>
<tspan x="10" y="2666">  │ │ └── punycode@1.4.1 </tspan>
<tspan x="10" y="2682">  │ ├── tunnel-agent@0.6.0 </tspan>
<tspan x="10" y="2698">  │ └── uuid@3.0.1 </tspan>
<tspan x="10" y="2714">  ├── semver@2.3.2 </tspan>
<tspan x="10" y="2730">  └── text-table@0.2.0</tspan>
</text>
</svg>
